<?xml version="1.0" encoding="UTF-8" standalone="no"?>
<!-- Created with Inkscape (http://www.inkscape.org/) -->

<svg
   xmlns:dc="http://purl.org/dc/elements/1.1/"
   xmlns:cc="http://creativecommons.org/ns#"
   xmlns:rdf="http://www.w3.org/1999/02/22-rdf-syntax-ns#"
   xmlns:svg="http://www.w3.org/2000/svg"
   xmlns="http://www.w3.org/2000/svg"
   xmlns:sodipodi="http://sodipodi.sourceforge.net/DTD/sodipodi-0.dtd"
   xmlns:inkscape="http://www.inkscape.org/namespaces/inkscape"
   version="1.1"
   id="svg3746"
   xml:space="preserve"
   width="1048.5699"
   height="590.78265"
   viewBox="0 0 1048.57 590.78266"
   sodipodi:docname="psa_logo_blue.svg"
   inkscape:version="0.92.2 (5c3e80d, 2017-08-06)"><metadata
     id="metadata3752"><rdf:RDF><cc:Work
         rdf:about=""><dc:format>image/svg+xml</dc:format><dc:type
           rdf:resource="http://purl.org/dc/dcmitype/StillImage" /><dc:title></dc:title></cc:Work></rdf:RDF></metadata><defs
     id="defs3750"><clipPath
       clipPathUnits="userSpaceOnUse"
       id="clipPath3764"><path
         d="M 0,893.547 H 1294 V 0 H 0 Z"
         id="path3762"
         inkscape:connector-curvature="0" /></clipPath></defs><sodipodi:namedview
     pagecolor="#ffffff"
     bordercolor="#666666"
     borderopacity="1"
     objecttolerance="10"
     gridtolerance="10"
     guidetolerance="10"
     inkscape:pageopacity="0"
     inkscape:pageshadow="2"
     inkscape:window-width="1920"
     inkscape:window-height="1027"
     id="namedview3748"
     showgrid="false"
     fit-margin-top="0"
     fit-margin-left="0"
     fit-margin-right="0"
     fit-margin-bottom="0"
     inkscape:zoom="0.50923255"
     inkscape:cx="530.87026"
     inkscape:cy="363.39443"
     inkscape:window-x="-8"
     inkscape:window-y="-8"
     inkscape:window-maximized="1"
     inkscape:current-layer="g3754" /><g
     id="g3754"
     inkscape:groupmode="layer"
     inkscape:label="Groupe-PSA-logotype-bleu_sur_blanc__pour_impression"
     transform="matrix(1.3333333,0,0,-1.3333333,-340.86546,858.56558)"><g
       id="g3758"><g
         id="g3760"
         clip-path="url(#clipPath3764)"><g
           id="g3766"
           transform="translate(914.5751,633.7112)"><path
             d="m 0,0 c -1.206,2.401 -3.607,3.607 -6.008,3.607 h -47.504 c -2.401,0 -4.802,-1.206 -6.008,-3.607 l -83.565,-158.123 c -1.206,13.832 -9.627,27.652 -21.046,36.073 -18.634,13.223 -51.1,22.241 -87.781,25.251 -21.035,1.804 -82.968,4.813 -102.199,11.419 -14.429,5.411 -21.644,13.234 -21.644,24.654 0,31.259 58.912,33.671 78.752,33.671 43.287,0 76.959,-9.018 105.22,-23.447 2.998,-1.804 6.606,-0.609 8.409,2.401 l 11.431,21.644 c 1.803,3.607 1.195,7.812 -3.01,10.224 -33.063,18.634 -72.146,26.446 -117.834,26.446 -34.269,0 -67.344,-4.802 -94.398,-21.035 -5.411,-3.01 -9.616,-6.617 -13.821,-10.224 -12.028,16.233 -37.279,24.653 -63.127,24.653 h -187.579 c -4.216,0 -7.214,-3.01 -7.214,-6.617 v -238.08 c 0,-4.205 2.998,-7.215 7.214,-7.215 h 28.25 c 3.607,0 6.617,3.01 6.617,7.215 v 200.801 c 0,3.607 3.01,6.617 6.617,6.617 h 135.273 c 33.661,0 51.1,-13.831 51.1,-42.081 0,-25.86 -16.233,-39.083 -48.699,-39.083 h -98.602 l -19.841,-37.279 h 117.846 c 30.053,0 52.903,6.618 68.538,19.841 5.411,4.813 9.616,10.224 13.223,16.232 16.83,-7.812 45.689,-13.82 87.172,-16.232 46.895,-2.999 75.753,-6.009 86.575,-9.019 20.449,-5.411 30.662,-15.624 30.662,-31.856 0,-38.486 -60.118,-44.494 -91.377,-44.494 -42.69,0 -84.771,8.421 -120.246,31.868 -3.608,2.401 -6.618,1.804 -8.421,-1.206 l -12.626,-23.447 c -2.401,-4.205 -0.597,-7.215 1.804,-9.019 43.896,-28.26 94.398,-34.866 141.89,-34.866 31.868,0 77.557,8.409 92.583,19.231 l -3.607,-6.606 c -1.195,-2.412 0,-6.617 4.813,-6.617 h 33.063 c 2.413,0 4.814,1.804 6.02,3.607 L -36.67,-43.287 c 1.195,2.401 2.401,3.607 5.411,3.607 h 3.607 c 2.998,0 4.205,-1.206 5.411,-3.607 l 54.707,-103.417 c 2.401,-4.802 0.597,-7.812 -4.205,-7.812 h -90.182 l -19.84,-37.279 H 52.306 c 2.401,0 4.813,-1.194 6.008,-3.607 l 25.251,-49.296 c 1.206,-1.803 3.607,-3.607 6.02,-3.607 h 33.062 c 5.411,0 5.411,4.814 4.205,7.812 z m -9.616,-431.07 h -48.698 v 46.286 h 46.895 v -6.606 h -39.083 v -12.028 h 33.672 v -7.214 h -33.672 v -13.832 h 40.886 z m -102.21,24.642 c 6.009,0 9.019,2.413 9.019,7.215 0,5.411 -3.01,7.823 -9.616,7.823 h -27.663 v -15.038 z m 1.206,21.644 c 4.803,0 8.41,-1.195 11.42,-3.607 3.01,-2.999 4.205,-6.009 4.205,-10.822 0,-4.802 -1.195,-7.812 -4.205,-10.822 -3.01,-2.401 -7.215,-3.607 -12.626,-3.607 h -28.26 v -17.428 h -7.215 v 46.286 z m -76.361,-31.259 c 0,-4.814 -2.401,-9.019 -7.215,-12.028 -4.802,-2.999 -11.419,-4.803 -19.231,-4.803 -7.823,0 -14.429,1.804 -19.243,4.803 -4.813,3.009 -7.214,7.214 -7.214,12.028 v 31.259 h 7.812 v -29.456 c 0,-3.607 1.206,-6.617 4.813,-8.421 3.01,-1.803 7.812,-2.998 13.832,-2.998 6.008,0 10.822,1.195 13.82,2.998 3.01,1.804 4.814,4.814 4.814,8.421 v 29.456 h 7.812 z m -94.984,8.42 c 0,5.411 -2.413,9.616 -7.215,13.223 -4.216,3.01 -9.018,4.205 -15.038,4.205 -6.008,0 -11.419,-1.804 -15.624,-4.802 -4.216,-3.607 -6.019,-7.823 -6.019,-12.626 0,-5.411 1.803,-9.627 6.019,-13.234 3.608,-2.998 9.018,-4.802 15.624,-4.802 6.617,0 12.028,1.804 16.233,4.802 3.607,3.607 6.02,7.823 6.02,13.234 m 7.812,0 c 0,-7.823 -3.01,-13.831 -9.616,-18.645 -5.411,-4.205 -12.028,-6.606 -20.449,-6.606 -7.812,0 -15.026,2.401 -20.437,6.606 -6.009,4.814 -9.616,10.822 -9.616,18.645 0,7.215 3.607,13.223 9.616,18.037 6.008,4.204 12.625,6.606 20.437,6.606 8.421,0 15.038,-2.402 20.449,-6.606 6.606,-4.814 9.616,-10.822 9.616,-18.037 m -111.229,1.195 c 6.02,0 9.019,2.413 9.019,7.215 0,5.411 -2.999,7.823 -9.616,7.823 h -27.055 v -15.038 z m 17.439,-24.642 h -9.018 l -12.625,17.428 h -23.448 v -17.428 h -7.812 v 46.286 h 36.671 c 4.813,0 9.018,-1.195 11.419,-3.607 3.01,-2.999 4.216,-6.606 4.216,-10.822 0,-4.205 -1.206,-7.215 -3.01,-9.616 -2.401,-2.401 -5.411,-3.607 -9.018,-4.205 z m -90.779,24.045 c 0,-7.812 -2.412,-13.832 -7.823,-18.634 -5.411,-4.814 -12.626,-7.215 -21.644,-7.215 -8.41,0 -15.027,2.401 -20.438,6.606 -6.617,4.814 -9.615,10.822 -9.615,18.645 0,7.215 2.998,13.223 9.615,18.037 5.411,4.204 12.626,6.606 21.047,6.606 10.213,0 18.634,-3.608 25.251,-11.42 l -7.215,-3.607 c -4.813,5.411 -10.822,7.812 -18.645,7.812 -6.008,0 -10.822,-1.195 -15.027,-4.205 -4.813,-3.607 -7.214,-7.812 -7.214,-13.223 0,-5.411 2.401,-9.627 6.008,-13.234 4.216,-2.998 9.627,-4.802 16.233,-4.802 10.224,0 16.841,4.205 19.84,12.017 h -21.644 v 7.214 h 31.271 z m 449.106,79.36 h -506.823 v 6.617 H -9.616 Z"
             style="fill:#1c355e;fill-opacity:1;fill-rule:nonzero;stroke:none"
             id="path3768"
             inkscape:connector-curvature="0" /></g></g></g></g></svg>